<?xml version="1.0" standalone="no"?>
<!DOCTYPE svg PUBLIC "-//W3C//DTD SVG 20010904//EN"
 "http://www.w3.org/TR/2001/REC-SVG-20010904/DTD/svg10.dtd">
<svg version="1.0" xmlns="http://www.w3.org/2000/svg"
 width="2000.000000pt" height="2000.000000pt" viewBox="0 0 2000.000000 2000.000000"
 preserveAspectRatio="xMidYMid meet">
<metadata>
Created by potrace 1.16, written by Peter Selinger 2001-2019
</metadata>
<g transform="translate(0.000000,2000.000000) scale(0.100000,-0.100000)"
fill="#000000" stroke="none">
<path d="M6410 18051 c-125 -26 -312 -164 -480 -356 -374 -426 -678 -1019
-825 -1604 -69 -278 -95 -487 -95 -778 0 -364 57 -674 173 -950 19 -46 31 -83
26 -83 -4 0 -31 9 -58 20 l-49 19 -26 -34 c-162 -213 -104 -426 164 -600 l92
-60 -43 -13 c-313 -93 -495 -114 -692 -77 l-38 7 21 -53 c69 -175 155 -254
335 -308 89 -27 248 -51 345 -52 67 0 186 -15 152 -18 -32 -3 -269 -130 -382
-206 -188 -126 -271 -196 -555 -475 -326 -320 -361 -345 -549 -391 -75 -18
-132 -37 -128 -41 17 -17 284 -128 378 -157 77 -24 276 -71 300 -71 2 0 -28
-64 -67 -142 -181 -361 -336 -711 -444 -1003 -244 -657 -421 -933 -700 -1094
-77 -44 -214 -93 -315 -112 -36 -7 -69 -16 -74 -20 -10 -9 65 -125 136 -207
200 -234 579 -456 962 -567 248 -71 524 -100 718 -76 40 5 55 4 50 -4 -4 -6
-28 -40 -53 -76 -152 -210 -253 -465 -295 -743 -20 -133 -23 -440 -5 -596 12
-106 60 -402 84 -519 l13 -64 33 179 c57 304 101 415 204 510 32 30 93 72 135
93 76 38 180 76 187 69 2 -1 -5 -39 -16 -83 -61 -253 -45 -538 46 -812 65
-196 169 -387 332 -610 l78 -108 13 110 c26 225 78 330 222 446 61 49 160 109
179 109 6 0 11 -17 11 -40 0 -62 27 -225 54 -330 41 -157 83 -266 171 -445
148 -301 333 -553 610 -831 139 -140 483 -439 493 -429 2 1 -19 97 -47 211
-81 341 -94 410 -95 524 -1 157 35 242 191 457 l29 41 23 -156 c59 -424 188
-788 378 -1072 132 -197 286 -340 1008 -940 662 -551 879 -753 992 -927 45
-70 180 -340 262 -525 9 -21 18 -38 21 -38 3 0 12 17 21 38 82 185 217 455
262 525 114 175 331 378 994 928 492 410 736 622 847 740 266 283 462 736 531
1229 9 63 19 134 23 157 l7 43 83 -123 c112 -166 135 -229 135 -372 0 -120
-10 -178 -94 -529 -28 -114 -49 -210 -47 -211 10 -10 354 289 493 429 277 278
462 530 610 831 88 179 130 288 171 445 27 105 54 268 54 330 0 23 5 40 11 40
19 0 118 -60 179 -109 144 -116 196 -221 222 -446 l13 -110 78 108 c163 223
267 414 332 610 43 131 62 222 77 374 13 138 2 301 -31 438 -11 44 -18 82 -16
83 7 7 110 -31 184 -67 40 -20 101 -61 135 -93 105 -96 149 -203 207 -508 l33
-175 12 55 c20 86 72 404 85 520 18 156 15 453 -4 590 -41 278 -143 537 -296
750 -26 36 -50 70 -53 75 -5 8 12 9 50 4 194 -24 470 5 718 76 383 111 762
333 962 567 71 82 146 198 136 207 -5 4 -38 13 -74 20 -101 19 -238 68 -315
112 -279 161 -456 437 -700 1094 -108 292 -263 642 -444 1003 -39 78 -69 142
-67 142 24 0 223 47 300 71 94 29 361 140 378 157 4 4 -53 23 -128 41 -188 46
-223 71 -549 391 -284 279 -367 349 -555 475 -113 76 -350 203 -382 206 -34 3
85 18 152 18 97 1 256 25 345 52 180 54 266 133 335 308 l21 53 -38 -7 c-197
-37 -379 -16 -692 77 l-43 13 92 60 c269 174 326 387 163 602 l-25 32 -49 -19
c-27 -11 -54 -20 -58 -20 -5 0 7 37 26 83 116 276 173 588 173 952 0 367 -56
696 -182 1070 -247 735 -754 1463 -1144 1642 -54 25 -155 36 -182 19 -6 -3
-36 -57 -66 -119 -133 -273 -348 -540 -785 -977 -267 -267 -460 -444 -777
-716 -215 -184 -533 -444 -544 -444 -5 0 -53 11 -107 25 -229 57 -559 97 -960
116 -467 22 -1094 -28 -1446 -116 -54 -14 -102 -25 -107 -25 -11 0 -329 260
-544 444 -317 272 -510 449 -777 716 -437 437 -652 704 -785 977 -30 62 -58
114 -62 116 -17 10 -80 14 -112 8z m38 -227 c18 -37 31 -68 29 -70 -2 -2 -25
3 -51 12 -33 11 -50 13 -55 6 -3 -6 -42 -173 -85 -371 -76 -348 -80 -360 -98
-344 -52 46 -216 -70 -314 -224 -76 -119 -145 -283 -228 -543 -45 -141 -106
-392 -106 -437 0 -13 -4 -23 -9 -23 -5 0 -16 49 -25 108 -19 123 -22 358 -6
470 65 458 313 946 655 1287 101 102 221 195 249 195 6 0 26 -30 44 -66z
m7223 24 c35 -23 114 -92 174 -153 304 -303 541 -735 631 -1148 36 -166 45
-433 19 -602 -9 -63 -21 -115 -26 -115 -5 0 -9 10 -9 23 -1 86 -107 465 -195
692 -114 296 -250 473 -397 517 -32 9 -41 9 -56 -5 -18 -16 -22 -4 -98 344
-43 198 -82 365 -85 371 -5 7 -22 5 -55 -6 -26 -9 -49 -14 -51 -12 -8 7 62
136 73 136 6 0 40 -19 75 -42z m-6869 -536 c54 -64 118 -140 143 -169 l45 -51
-85 26 c-47 14 -86 23 -88 21 -2 -2 -31 -148 -66 -324 -35 -176 -68 -337 -73
-359 l-10 -39 -67 114 c-76 129 -147 237 -215 323 -25 33 -46 63 -46 68 0 4
61 120 136 258 l136 250 46 0 47 -1 97 -117z m6722 -132 c75 -138 136 -254
136 -258 0 -5 -21 -35 -46 -68 -68 -86 -139 -194 -215 -323 l-67 -114 -10 39
c-5 22 -38 183 -73 359 -35 176 -64 322 -66 324 -2 2 -41 -7 -88 -21 l-85 -26
45 51 c25 29 89 105 143 169 l97 117 47 1 46 0 136 -250z m-7321 -362 c125
-144 234 -317 462 -738 350 -646 548 -942 730 -1092 35 -29 63 -57 61 -62 -3
-12 -139 -94 -320 -192 -124 -68 -141 -75 -163 -65 -83 38 -298 237 -372 344
-73 107 -126 258 -139 393 l-7 77 -49 -129 c-28 -71 -58 -149 -68 -174 l-19
-44 -20 43 c-33 74 -88 260 -111 375 -18 89 -22 146 -23 291 0 188 13 283 56
404 25 72 13 58 -57 -68 -109 -196 -208 -445 -249 -624 -63 -275 -59 -605 10
-896 14 -57 23 -106 21 -108 -9 -10 -118 135 -155 206 -95 182 -125 334 -125
626 0 258 15 371 89 660 83 325 157 532 240 674 40 68 121 161 140 161 7 0 38
-28 68 -62z m7722 10 c118 -132 211 -359 320 -783 74 -289 89 -402 89 -660 0
-292 -30 -444 -125 -626 -37 -71 -146 -216 -155 -206 -2 2 7 51 21 108 69 291
73 621 10 896 -41 179 -140 428 -249 624 -70 126 -82 140 -57 68 43 -121 56
-216 56 -404 -1 -145 -5 -202 -23 -291 -23 -115 -78 -301 -111 -375 l-20 -43
-19 44 c-10 25 -40 103 -68 174 l-49 129 -7 -77 c-13 -144 -68 -293 -152 -409
-59 -83 -216 -233 -306 -293 l-73 -49 -71 39 c-127 68 -350 197 -376 216 l-25
19 30 23 c111 87 231 228 370 438 115 174 199 319 400 690 228 421 337 594
462 738 30 34 61 62 68 62 7 0 34 -23 60 -52z m-6477 -195 c98 -91 188 -177
202 -190 14 -13 18 -22 10 -19 -41 15 -394 105 -397 103 -2 -2 -26 -132 -53
-288 -27 -156 -62 -354 -77 -441 -15 -86 -31 -154 -35 -152 -9 6 -122 204
-240 422 l-88 163 141 267 c78 147 146 275 151 285 7 14 24 17 109 17 l101 0
176 -167z m5633 -120 l149 -282 -91 -168 c-127 -234 -228 -411 -237 -417 -4
-2 -20 66 -35 152 -15 87 -50 285 -77 441 -27 156 -51 286 -53 288 -3 2 -357
-89 -397 -103 -8 -3 35 41 95 98 61 56 151 142 200 190 l90 88 103 -2 104 -3
149 -282z m-4993 -454 c92 -78 175 -150 185 -159 17 -16 8 -15 -85 5 -315 69
-480 99 -487 87 -4 -7 -15 -78 -25 -159 -10 -82 -25 -203 -34 -270 l-17 -123
-143 64 c-78 35 -142 60 -142 55 0 -12 95 -201 174 -343 100 -181 89 -201 -41
-73 -78 76 -184 205 -261 318 l-31 46 46 89 c25 49 103 205 174 347 l129 257
196 0 196 0 166 -141z m4557 -208 l173 -345 -31 -45 c-76 -113 -182 -243 -260
-318 -130 -128 -141 -108 -41 73 79 142 174 331 174 343 0 5 -64 -20 -142 -55
l-143 -64 -17 123 c-9 67 -24 188 -34 270 -10 81 -21 152 -25 159 -7 12 -172
-18 -487 -87 -57 -12 -100 -19 -95 -14 4 4 87 75 183 158 l175 150 198 -2 199
-2 173 -344z m-2260 -108 c-170 -394 -218 -1022 -139 -1820 10 -95 15 -175 12
-178 -36 -37 -480 -37 -516 0 -3 3 2 83 12 178 49 496 49 944 1 1292 -25 176
-83 397 -140 528 -7 16 15 17 385 17 370 0 392 -1 385 -17z m-912 -88 c58
-134 113 -365 129 -533 l3 -33 -280 1 c-443 1 -815 -37 -1290 -131 l-150 -30
-21 27 c-24 29 -175 277 -171 280 1 1 49 -14 107 -33 259 -85 455 -118 647
-110 181 7 288 49 367 144 57 68 95 194 96 313 0 41 -4 49 -42 81 l-41 36 139
22 c272 42 399 59 434 58 34 -2 36 -4 73 -92z m1382 60 c132 -19 258 -38 279
-42 l39 -9 -41 -33 c-41 -31 -42 -35 -42 -89 1 -121 44 -250 107 -318 82 -88
181 -124 356 -131 193 -8 389 25 647 110 58 19 106 34 107 33 4 -3 -147 -251
-171 -280 l-21 -27 -150 30 c-475 94 -847 132 -1290 131 l-280 -1 3 33 c14
151 65 374 113 495 45 115 57 133 82 133 12 0 130 -16 262 -35z m-2234 -97
l130 -102 -7 -40 c-27 -169 -146 -236 -392 -223 -109 5 -274 38 -423 82 -45
14 -84 27 -86 28 -2 2 31 78 74 168 42 90 78 165 78 166 2 4 298 20 398 22
l99 1 129 -102z m3304 85 l80 -6 78 -165 c42 -91 76 -167 74 -169 -2 -2 -41
-14 -86 -28 -310 -93 -565 -109 -692 -45 -70 36 -116 108 -122 193 -2 36 1 39
123 137 l125 101 170 -6 c94 -3 206 -8 250 -12z m-2327 -662 c7 -4 14 -27 15
-50 l2 -42 -285 1 c-409 1 -715 -27 -1159 -106 l-204 -36 -19 23 c-34 43 -40
59 -26 64 26 9 397 75 533 94 133 19 381 47 490 54 109 7 641 6 653 -2z m1662
-15 c253 -29 757 -109 818 -131 14 -5 8 -21 -26 -64 l-19 -23 -204 36 c-444
79 -750 107 -1159 106 l-285 -1 2 42 c1 23 8 46 15 51 22 15 694 2 858 -16z
m-1644 -168 c4 -5 8 -26 8 -49 l1 -41 -285 1 c-664 4 -1131 -69 -2243 -349
-241 -60 -444 -110 -450 -110 -7 0 47 26 118 59 72 32 169 76 216 99 66 32
153 58 385 116 634 158 1084 239 1524 275 126 10 715 9 726 -1z m1475 2 c454
-35 903 -116 1564 -281 212 -53 301 -80 365 -111 47 -23 144 -67 215 -99 72
-33 125 -59 118 -59 -6 0 -209 50 -450 110 -723 182 -1095 259 -1503 309 -262
33 -435 42 -740 40 -209 -1 -285 2 -288 10 -2 7 -1 27 2 46 5 24 13 35 29 38
47 9 559 7 688 -3z m-3405 -49 c32 -11 77 -23 99 -26 36 -6 17 -13 -170 -56
-115 -27 -219 -52 -230 -55 -11 -4 -17 -3 -14 0 8 9 242 154 250 155 3 1 32
-8 65 -18z m4813 -55 c129 -78 149 -92 116 -82 -11 3 -114 28 -230 55 -187 44
-206 50 -170 56 22 4 65 15 95 25 30 10 58 19 61 19 3 1 61 -32 128 -73z
m-2899 -33 l33 -6 -6 -224 c-6 -208 -31 -558 -43 -612 -5 -22 -9 -20 -72 41
-84 81 -187 150 -327 221 -590 295 -1305 313 -2211 56 -260 -73 -519 -162
-981 -335 -227 -85 -419 -154 -428 -154 -20 0 -147 57 -216 97 -75 43 -156
117 -179 164 -20 39 -26 114 -12 137 7 10 26 8 93 -9 122 -31 400 -38 575 -14
138 19 341 65 494 114 52 16 129 35 170 41 120 18 276 54 693 159 806 204
1281 291 1762 324 96 7 623 7 655 0z m1660 -17 c475 -54 837 -125 1557 -307
417 -105 573 -141 693 -159 41 -6 118 -25 170 -41 153 -49 356 -95 494 -114
175 -24 453 -17 575 14 96 25 101 22 101 -47 0 -108 -113 -215 -328 -310 -40
-18 -79 -32 -87 -32 -8 0 -201 69 -428 154 -465 174 -723 262 -981 335 -906
257 -1621 239 -2211 -56 -140 -71 -243 -140 -327 -221 -63 -61 -67 -63 -72
-41 -12 54 -37 404 -43 613 l-6 224 24 5 c56 12 727 -1 869 -17z m-3194 -504
l-40 -18 130 -138 c71 -75 130 -141 132 -144 1 -4 -138 -27 -310 -51 -172 -24
-321 -47 -330 -50 -13 -5 36 -50 193 -181 116 -96 218 -181 227 -187 14 -12
14 -14 -4 -28 -10 -8 -93 -51 -184 -96 -91 -46 -167 -87 -168 -91 -7 -17 -379
-188 -409 -188 -10 0 -177 289 -185 319 -2 7 89 55 229 120 l232 108 -190 158
c-105 87 -187 161 -182 165 4 4 130 24 278 44 149 21 281 41 294 45 23 7 20
11 -63 98 l-87 91 30 7 c49 11 291 33 371 34 l75 0 -39 -17z m4099 3 c232 -22
221 -11 119 -118 -83 -87 -86 -91 -63 -98 13 -4 146 -24 294 -45 149 -20 274
-40 278 -44 5 -4 -77 -78 -182 -165 l-190 -158 232 -108 c140 -65 231 -113
229 -120 -8 -30 -175 -319 -185 -319 -30 0 -402 171 -409 188 -1 4 -77 45
-168 91 -91 45 -174 88 -184 96 -18 14 -18 16 -4 28 9 6 111 91 227 187 157
131 206 176 193 181 -9 3 -158 26 -330 50 -172 24 -311 47 -310 51 2 3 61 69
132 144 l130 138 -40 18 -39 17 56 1 c31 0 127 -7 214 -15z m-3540 -37 c55
-11 152 -37 215 -58 112 -37 297 -116 289 -124 -2 -2 -67 -28 -144 -57 -77
-28 -143 -55 -146 -58 -4 -3 51 -58 121 -121 71 -63 127 -116 125 -118 -1 -2
-148 -21 -326 -42 -178 -22 -327 -41 -332 -43 -7 -2 119 -93 375 -271 48 -34
87 -63 88 -66 0 -3 -85 -38 -189 -79 -147 -57 -188 -77 -184 -88 5 -13 -6 -14
-83 -9 -79 7 -297 -5 -394 -20 -35 -6 -36 -5 -73 61 -20 37 -35 70 -32 74 2 4
106 55 230 112 124 57 224 107 222 110 -1 4 -87 77 -191 163 -110 91 -183 158
-175 160 8 3 144 23 303 45 159 22 290 42 292 44 2 1 -68 79 -156 172 -87 94
-155 173 -152 177 4 4 39 20 77 37 77 33 70 33 240 -1z m3010 -8 l67 -30 -103
-111 c-57 -60 -130 -139 -161 -174 l-58 -63 33 -6 c17 -3 149 -21 292 -41 143
-20 266 -38 274 -41 8 -2 -65 -69 -175 -160 -104 -86 -190 -159 -191 -163 -2
-3 98 -53 222 -110 124 -57 228 -108 230 -112 3 -4 -12 -37 -32 -74 -37 -66
-38 -67 -73 -61 -97 15 -315 27 -394 20 -77 -5 -88 -4 -83 9 4 11 -37 31 -184
88 -104 41 -189 76 -189 79 1 3 40 32 88 66 256 178 382 269 375 271 -5 2
-154 21 -332 43 -178 21 -325 40 -326 42 -2 2 54 55 125 118 70 63 125 118
121 121 -3 3 -69 30 -146 58 -77 29 -142 55 -144 57 -8 8 177 87 289 124 63
21 162 47 220 59 58 11 114 22 125 25 30 6 55 0 130 -34z m-4579 -357 l226
-188 -103 -48 c-82 -38 -141 -56 -279 -87 -96 -21 -197 -41 -225 -45 -97 -13
-291 -46 -410 -70 -352 -70 -897 -99 -1143 -61 -101 15 -217 44 -209 52 2 2
44 11 93 19 199 34 451 115 1019 328 303 113 718 261 803 286 1 1 104 -83 228
-186z m6170 168 c131 -42 404 -139 749 -268 570 -213 811 -291 1018 -328 53
-10 97 -19 97 -20 0 -8 -120 -37 -212 -51 -246 -38 -791 -9 -1143 61 -119 24
-313 57 -410 70 -27 4 -129 24 -225 45 -138 31 -197 49 -279 87 l-103 48 223
187 c123 103 224 187 224 187 0 0 28 -8 61 -18z m-3811 -183 c68 -68 102 -112
128 -164 60 -119 72 -173 71 -319 -2 -145 -22 -240 -90 -426 -35 -97 -198
-439 -208 -439 -3 0 -23 39 -45 86 -94 199 -244 347 -431 425 -30 12 -59 25
-63 29 -4 4 94 46 218 95 124 49 224 92 223 96 -2 5 -85 66 -186 138 l-183
129 38 6 c21 3 155 19 298 36 143 17 263 32 268 33 4 1 -65 67 -153 146 -88
79 -160 147 -160 151 0 8 146 67 169 69 8 1 55 -41 106 -91z m1362 61 c46 -18
83 -35 83 -39 0 -4 -72 -72 -160 -151 -88 -79 -157 -145 -153 -146 5 -1 125
-16 268 -33 143 -17 277 -33 298 -36 l38 -6 -183 -129 c-101 -72 -184 -133
-186 -138 -1 -4 99 -47 223 -96 124 -49 222 -91 218 -95 -4 -4 -33 -17 -63
-29 -187 -78 -337 -226 -431 -425 -22 -47 -42 -86 -45 -86 -10 0 -173 342
-208 439 -68 186 -88 281 -90 426 -1 146 11 200 71 319 26 52 60 96 128 164
51 50 96 92 101 92 4 0 45 -14 91 -31z m-3755 -663 c59 -106 108 -199 110
-206 4 -17 -164 -69 -330 -104 -247 -51 -427 -56 -600 -16 -147 35 -149 30 54
134 172 89 416 231 574 335 41 27 77 50 80 50 3 0 53 -86 112 -193z m6190 116
c201 -128 343 -210 532 -308 203 -104 201 -99 54 -134 -173 -40 -353 -35 -600
16 -166 35 -334 87 -330 104 3 13 215 399 219 400 2 0 58 -35 125 -78z m-6932
-113 c-60 -43 -350 -172 -447 -201 l-114 -32 42 -36 c81 -68 154 -120 207
-147 43 -23 52 -32 47 -48 -43 -147 -75 -369 -75 -515 l0 -65 -62 -42 c-58
-39 -186 -103 -206 -103 -11 0 -55 153 -79 275 -12 65 -17 140 -18 270 0 190
10 265 58 418 l23 71 89 29 c175 56 483 134 535 136 13 1 13 0 0 -10z m7685
-45 c94 -23 217 -58 275 -76 l104 -33 23 -72 c48 -153 58 -228 58 -418 -1
-130 -6 -205 -18 -270 -24 -122 -68 -275 -79 -275 -20 0 -148 64 -205 103
l-63 42 0 65 c0 146 -32 368 -75 515 -5 16 4 25 47 48 53 27 126 79 207 147
l42 36 -114 32 c-98 29 -390 160 -447 201 -24 18 55 3 245 -45z m-8365 -138
c0 -3 -11 -46 -25 -96 -66 -248 -56 -575 25 -840 11 -36 20 -70 20 -77 0 -15
-69 -38 -80 -27 -13 13 -66 205 -85 304 -37 195 -30 440 18 620 22 82 22 83
67 101 47 19 60 22 60 15z m8875 -22 c30 -12 34 -20 53 -96 47 -189 54 -426
17 -618 -19 -100 -72 -291 -85 -304 -11 -11 -80 12 -80 27 0 7 9 41 20 77 81
265 91 592 25 840 -14 50 -25 94 -25 96 0 6 29 -2 75 -22z m-9085 -71 c-1 -5
-7 -37 -16 -73 -21 -93 -30 -366 -15 -485 13 -103 47 -252 80 -350 11 -33 17
-63 13 -67 -4 -4 -30 -9 -57 -10 l-49 -3 -23 73 c-43 138 -64 262 -70 418 -6
163 4 266 39 397 16 62 25 80 47 92 29 16 51 19 51 8z m9269 -8 c24 -12 32
-27 49 -92 65 -244 53 -548 -31 -815 l-23 -73 -49 3 c-27 1 -53 6 -57 10 -4 4
2 34 13 67 33 98 67 247 80 350 15 119 6 392 -15 485 -9 36 -15 68 -16 73 0
11 18 8 49 -8z m-6340 -65 c380 -147 716 -557 881 -1076 27 -87 33 -120 40
-269 5 -93 9 -235 9 -315 l-1 -145 -23 155 c-78 514 -276 940 -578 1241 -201
200 -435 321 -702 364 -55 9 -101 18 -102 19 -4 4 170 34 257 45 111 14 138
12 219 -19z m346 0 c324 -83 528 -363 550 -755 4 -71 5 -128 3 -125 -3 3 -22
43 -43 90 -153 341 -406 636 -680 793 l-50 29 70 -6 c39 -3 106 -15 150 -26z
m2840 2 c-97 -54 -181 -117 -274 -207 -182 -176 -287 -332 -439 -655 -10 -20
-11 1 -6 105 16 343 184 615 447 722 73 30 213 61 277 62 l45 1 -50 -28z m385
18 c95 -12 271 -42 267 -46 -1 -1 -47 -10 -102 -19 -445 -71 -805 -366 -1054
-862 -112 -224 -183 -458 -226 -743 l-23 -155 -1 145 c0 80 4 222 9 315 7 149
13 182 40 269 166 521 497 925 884 1077 78 31 96 33 206 19z m-4583 -27 c-8
-10 -32 -53 -52 -96 -41 -84 -51 -150 -36 -219 6 -23 8 -44 6 -46 -2 -2 -46
10 -97 27 -302 96 -623 75 -916 -60 -47 -21 -88 -39 -92 -39 -10 0 15 148 38
230 10 36 22 64 28 63 283 -50 633 -7 1014 125 63 21 117 38 119 36 2 -2 -3
-12 -12 -21z m5732 -88 c289 -73 553 -91 775 -52 6 1 18 -27 28 -63 23 -82 48
-230 38 -230 -4 0 -45 18 -92 39 -293 135 -614 156 -916 60 -51 -17 -95 -29
-97 -27 -2 2 0 23 6 46 15 69 5 134 -36 222 -21 44 -44 85 -52 91 -33 28 -3
24 116 -17 72 -24 175 -55 230 -69z m-7884 18 c-19 -99 -25 -169 -25 -293 0
-155 17 -286 60 -449 17 -63 29 -116 27 -117 -1 -2 -27 -4 -56 -6 l-54 -3 -14
50 c-57 210 -77 464 -49 640 22 142 31 167 68 192 46 30 51 28 43 -14z m9730
15 c40 -26 49 -49 71 -193 28 -176 8 -430 -49 -640 l-14 -50 -54 3 c-29 2 -55
4 -56 6 -2 1 10 54 27 117 67 257 79 510 35 742 -4 20 -4 37 -1 37 3 0 22 -10
41 -22z m-6919 -64 c238 -42 460 -168 650 -367 278 -292 458 -686 529 -1159
38 -253 36 -682 -4 -836 -20 -74 -38 -113 -28 -57 14 72 18 323 8 470 -33 467
-155 865 -364 1184 -247 376 -546 590 -917 657 -95 17 -337 21 -412 6 -53 -10
-55 -8 -34 42 13 30 21 35 82 50 148 36 324 40 490 10z m4389 16 c61 -6 126
-15 145 -19 19 -5 48 -12 63 -15 20 -5 33 -17 43 -41 21 -51 19 -53 -33 -43
-76 15 -318 11 -413 -6 -371 -67 -670 -281 -917 -657 -209 -318 -331 -716
-364 -1184 -10 -147 -6 -398 8 -470 10 -53 -7 -20 -27 54 -41 147 -44 584 -5
839 71 473 251 867 529 1159 224 235 482 362 791 386 22 2 47 4 55 5 8 1 65
-3 125 -8z m-7395 -140 c-24 -164 -7 -427 40 -609 11 -44 20 -82 20 -86 0 -3
-21 -5 -46 -3 -46 3 -47 4 -60 48 -47 156 -75 431 -59 570 7 62 9 67 57 108
28 24 52 42 54 40 2 -2 -1 -33 -6 -68z m10141 15 l44 -39 0 -181 c-1 -180 -17
-307 -59 -445 -13 -44 -14 -45 -60 -48 -25 -2 -46 -1 -46 2 0 3 11 50 24 105
38 157 49 275 43 455 -3 88 -9 172 -13 185 -9 30 5 23 67 -34z m-7371 -65
c386 -41 695 -240 942 -609 277 -414 407 -958 369 -1539 -18 -270 -28 -307
-23 -82 23 934 -247 1644 -714 1878 -82 41 -145 58 -311 82 -247 35 -427 90
-523 158 -49 35 -90 85 -79 96 6 6 149 23 209 24 19 1 78 -3 130 -8z m4833 -7
c53 -6 56 -13 27 -53 -63 -88 -279 -166 -584 -210 -165 -24 -228 -41 -310 -82
-332 -166 -569 -574 -665 -1145 -36 -212 -45 -342 -46 -638 0 -309 -6 -312
-26 -13 -31 469 48 916 227 1288 303 629 786 928 1377 853z m-7718 -478 c15
-66 29 -130 32 -142 5 -21 2 -23 -30 -23 -55 0 -233 19 -332 36 -89 15 -253
52 -268 61 -4 2 16 23 45 46 29 22 157 143 283 267 l230 225 7 -175 c5 -131
14 -205 33 -295z m10600 225 c116 -114 234 -225 263 -248 29 -22 49 -43 45
-45 -15 -9 -179 -46 -268 -61 -99 -17 -277 -36 -332 -36 -32 0 -35 2 -30 23
46 191 58 273 64 435 l6 172 21 -17 c12 -10 116 -110 231 -223z m-8513 145
c117 -20 252 -66 372 -126 129 -64 137 -71 101 -95 -22 -15 -33 -16 -63 -7
-231 66 -382 93 -529 93 -211 0 -457 -68 -634 -175 -31 -19 -59 -35 -62 -35
-2 0 -8 34 -12 76 -6 64 -4 78 10 95 21 22 197 110 270 134 160 54 378 70 547
40z m6526 0 c113 -22 192 -49 308 -106 135 -66 138 -69 129 -163 -4 -42 -10
-76 -12 -76 -3 0 -31 16 -62 35 -131 79 -290 135 -453 159 -221 33 -392 14
-710 -77 -30 -9 -41 -8 -63 7 -36 24 -28 31 101 95 116 58 255 106 364 126
103 18 300 18 398 0z m-6369 -285 c57 -11 116 -26 133 -33 l29 -12 -40 -39
-41 -40 -88 12 c-204 27 -445 9 -612 -45 -81 -26 -210 -86 -277 -127 -23 -15
-44 -23 -46 -19 -3 5 -8 29 -12 55 l-7 47 68 44 c139 90 285 147 442 172 117
19 317 13 451 -15z m6264 15 c163 -25 307 -79 451 -172 l68 -44 -7 -47 c-4
-26 -9 -50 -12 -55 -2 -4 -23 4 -46 19 -67 41 -196 101 -277 127 -167 54 -408
72 -612 45 l-88 -12 -40 39 c-28 28 -36 41 -27 47 18 11 181 48 257 57 105 13
228 12 333 -4z m-5877 -120 c-3 -8 -10 -55 -16 -103 -31 -240 50 -451 231
-608 56 -47 195 -134 217 -134 16 0 16 -3 -13 -93 -47 -146 -105 -534 -93
-618 4 -27 2 -29 -26 -29 -17 0 -87 12 -156 26 -165 34 -170 35 -170 43 0 3
72 31 160 61 88 30 160 57 160 60 0 3 -26 21 -57 40 -190 114 -427 338 -517
488 -79 132 -100 199 -100 322 -1 122 14 176 75 270 52 81 117 150 214 227 81
64 102 75 91 48z m5129 -40 c135 -103 243 -236 282 -348 13 -38 18 -80 17
-157 0 -123 -21 -190 -100 -322 -90 -150 -327 -374 -516 -488 -32 -19 -58 -37
-58 -40 0 -3 72 -30 160 -60 88 -30 160 -58 160 -61 0 -8 -5 -9 -170 -43 -69
-14 -139 -26 -156 -26 -28 0 -30 2 -26 29 12 84 -46 472 -93 618 -29 90 -29
93 -12 93 21 0 160 87 216 134 181 157 262 368 231 608 -6 48 -13 95 -16 103
-10 25 7 17 81 -40z m-4363 -56 c100 -21 172 -77 218 -169 31 -62 38 -161 15
-229 -22 -69 -98 -151 -167 -182 -155 -69 -349 12 -408 168 -41 111 -20 228
57 313 50 56 102 87 166 100 59 11 60 11 119 -1z m3701 -21 c61 -26 139 -111
161 -174 69 -202 -78 -409 -289 -408 -94 0 -160 29 -224 100 -111 122 -108
296 8 417 87 92 221 117 344 65z m-4901 -7 l28 -6 -41 -62 c-37 -57 -45 -62
-82 -67 -172 -20 -228 -30 -304 -52 -122 -35 -215 -76 -316 -141 -48 -30 -90
-54 -92 -52 -6 7 -57 170 -53 173 114 89 306 171 465 200 79 14 344 19 395 7z
m6393 -25 c108 -28 299 -116 353 -163 l33 -28 -27 -80 c-14 -44 -27 -82 -29
-84 -2 -2 -44 22 -92 52 -101 65 -194 106 -316 141 -76 22 -132 32 -304 52
-37 5 -45 10 -82 67 l-41 62 28 7 c15 4 106 5 202 4 150 -3 189 -7 275 -30z
m-8522 -153 c193 -5 217 -8 212 -22 -25 -80 -66 -242 -79 -310 -50 -265 -37
-731 33 -1123 10 -54 15 -98 12 -98 -12 1 -114 138 -203 270 -119 179 -230
405 -298 607 -30 89 -58 159 -61 155 -14 -14 -117 -330 -143 -433 -84 -342
-71 -722 35 -1025 61 -177 164 -366 289 -531 17 -24 28 -43 23 -42 -4 0 -114
53 -243 117 l-235 117 -24 693 -25 692 24 58 c48 118 191 425 305 655 106 214
121 238 139 232 12 -3 119 -8 239 -12z m10552 -220 c114 -230 257 -537 305
-655 l24 -58 -25 -692 -24 -693 -235 -117 c-129 -64 -239 -117 -243 -117 -5
-1 6 18 23 42 125 165 228 354 289 531 106 303 119 683 35 1025 -26 103 -129
419 -143 433 -3 4 -31 -66 -61 -155 -68 -202 -179 -428 -298 -607 -89 -132
-191 -269 -203 -270 -3 0 2 44 12 98 70 392 83 858 33 1123 -13 69 -54 230
-80 312 -5 16 7 17 148 18 126 1 253 8 314 17 6 1 64 -105 129 -235z m-8532
55 c-2 -46 -6 -88 -8 -94 -2 -6 -24 -15 -50 -18 -123 -19 -278 -79 -418 -162
l-88 -53 -39 80 c-22 43 -40 82 -40 87 0 11 120 92 186 125 117 59 316 115
416 116 l46 1 -5 -82z m6302 63 c157 -32 338 -112 455 -201 l25 -19 -42 -85
-43 -86 -52 34 c-130 83 -299 152 -432 177 -34 7 -64 14 -67 18 -4 3 -9 45
-12 94 l-5 87 42 0 c22 0 82 -9 131 -19z m-6264 -373 c16 -46 29 -86 29 -90 0
-3 -19 -9 -42 -13 -74 -13 -212 -62 -304 -108 -112 -57 -191 -112 -294 -206
-45 -40 -85 -70 -89 -65 -24 26 -81 107 -81 114 0 5 39 50 88 101 169 179 338
279 562 333 52 13 97 22 98 21 2 -2 17 -41 33 -87z m6282 41 c81 -26 189 -79
272 -134 64 -43 208 -175 257 -237 l30 -38 -21 -32 c-12 -18 -32 -46 -45 -62
l-24 -29 -82 74 c-103 94 -182 149 -294 206 -92 46 -230 95 -303 108 -24 4
-43 10 -43 13 0 4 14 45 30 92 16 47 30 86 30 87 0 4 131 -29 193 -48z m-6998
-42 c39 -24 68 -46 66 -49 -2 -3 -48 -51 -102 -106 l-100 -100 -23 46 c-55
112 -55 103 9 182 31 38 62 70 69 70 6 0 43 -20 81 -43z m7640 -27 c64 -79 64
-70 9 -182 l-23 -46 -100 100 c-54 55 -100 103 -102 106 -5 7 131 92 147 92 7
0 38 -32 69 -70z m-8619 -100 c151 -203 401 -433 643 -591 88 -57 116 -81 137
-118 15 -25 40 -62 56 -82 15 -20 28 -41 28 -46 0 -5 -18 -57 -40 -115 -133
-355 -234 -1047 -203 -1395 7 -70 10 -129 8 -131 -7 -7 -153 35 -238 68 -267
103 -487 247 -687 449 -142 144 -230 267 -315 436 -160 320 -206 630 -149 987
23 145 19 144 83 22 114 -218 293 -470 457 -644 88 -92 511 -446 522 -435 2 2
-52 93 -121 202 -68 109 -134 224 -146 256 -28 76 -75 310 -101 507 -30 217
-41 767 -16 739 2 -2 39 -51 82 -109z m9541 -205 c-4 -193 -12 -314 -26 -425
-27 -197 -74 -431 -102 -507 -12 -32 -78 -147 -146 -256 -69 -109 -123 -200
-121 -202 11 -11 434 343 522 435 164 174 343 426 457 644 64 122 60 123 83
-22 57 -357 11 -667 -149 -987 -85 -169 -173 -292 -315 -436 -204 -206 -425
-350 -698 -453 -99 -38 -220 -71 -227 -64 -3 3 0 50 6 104 41 354 -67 1075
-222 1480 l-23 61 30 39 c17 21 43 60 58 85 21 37 49 61 137 118 242 159 501
397 649 598 67 92 76 100 83 80 5 -12 7 -143 4 -292z m-6748 203 c18 -6 22
-13 17 -31 -45 -169 -83 -391 -92 -549 l-7 -108 -49 0 -48 0 0 90 c0 149 55
476 97 583 16 40 17 40 82 15z m3944 -16 c42 -106 97 -433 97 -582 l0 -90 -48
0 -49 0 -7 108 c-8 134 -28 270 -62 420 -36 155 -36 152 6 168 48 17 46 18 63
-24z m-3785 -18 c38 -6 43 -10 39 -28 -31 -137 -68 -341 -77 -421 -23 -204
-17 -184 -56 -190 -19 -3 -50 -7 -69 -10 -41 -7 -40 -12 -25 146 13 125 33
251 62 379 29 133 34 143 61 137 12 -4 42 -9 65 -13z m3649 -32 c34 -117 76
-371 89 -535 l6 -88 -36 5 c-20 3 -51 8 -70 11 -39 6 -34 -10 -56 190 -9 80
-46 283 -77 421 -4 18 2 22 49 31 75 15 81 13 95 -35z m-3470 0 c10 -6 7 -31
-12 -108 -31 -128 -55 -293 -55 -382 l0 -70 -60 -15 -60 -15 0 44 c0 88 63
459 91 531 7 18 16 23 46 23 21 0 44 -4 50 -8z m3282 -15 c28 -72 91 -443 91
-531 l0 -44 -60 15 -60 15 0 70 c0 89 -24 254 -55 382 -28 111 -26 116 38 116
30 0 39 -5 46 -23z m-3035 -25 c54 -30 113 -100 145 -174 l20 -47 -59 -54
c-96 -89 -317 -223 -337 -204 -15 16 32 309 78 481 l10 38 47 -7 c26 -4 69
-19 96 -33z m2845 1 c46 -171 93 -464 78 -480 -20 -19 -241 115 -337 204 l-59
54 20 47 c52 125 154 206 266 211 18 1 24 -7 32 -36z m-4409 7 c6 -11 33 -47
61 -80 28 -34 49 -63 47 -65 -1 -2 -43 -11 -93 -20 -193 -35 -372 -114 -529
-232 -96 -72 -86 -72 -165 -1 -22 21 -41 42 -41 47 0 9 83 89 151 144 54 43
191 123 268 156 63 27 224 70 263 71 17 0 31 -7 38 -20z m6017 -16 c98 -28
216 -85 313 -149 70 -47 210 -171 210 -186 0 -5 -19 -26 -41 -47 -79 -71 -69
-71 -165 1 -157 118 -336 197 -529 232 -49 9 -92 18 -93 20 -2 2 19 31 47 65
28 33 56 70 62 81 10 19 17 21 60 15 27 -4 88 -18 136 -32z m-5743 -281 c24
-21 45 -41 45 -44 1 -4 -92 -39 -206 -78 -115 -39 -214 -75 -220 -79 -24 -15
307 -144 493 -192 325 -84 662 -79 939 15 12 4 4 -8 -20 -29 -38 -35 -56 -48
-193 -144 -157 -109 -406 -208 -616 -244 -103 -17 -148 -19 -301 -15 -251 8
-408 46 -606 148 -96 49 -235 145 -274 189 l-20 23 30 -6 c214 -44 328 -57
649 -71 187 -9 341 -14 342 -13 2 2 -130 45 -294 96 -202 63 -330 110 -402
145 -57 28 -105 56 -107 61 -1 6 30 33 70 61 160 114 351 185 557 207 81 9 88
7 134 -30z m5524 11 c150 -27 308 -95 439 -188 40 -28 71 -55 70 -61 -2 -5
-50 -33 -107 -61 -72 -35 -200 -82 -402 -145 -164 -51 -296 -94 -294 -96 1 -1
155 4 342 13 321 14 435 27 649 71 l30 6 -20 -23 c-40 -45 -174 -137 -271
-187 -201 -104 -357 -142 -609 -150 -153 -4 -198 -2 -301 15 -210 36 -459 135
-616 244 -137 96 -155 109 -193 144 -24 21 -32 33 -20 29 277 -94 614 -99 939
-15 186 48 517 177 493 192 -6 4 -105 40 -219 79 -115 39 -208 74 -207 78 0 3
21 23 46 44 45 38 47 38 107 32 34 -3 98 -13 144 -21z m-8729 -1035 l1 -336
362 -173 c318 -151 370 -180 428 -230 36 -32 78 -69 94 -82 23 -19 25 -26 15
-34 -11 -8 -140 47 -512 216 -273 125 -499 229 -502 232 -3 2 -10 228 -16 501
l-12 496 64 173 64 173 6 -300 c3 -165 7 -451 8 -636z m11761 761 l62 -165
-11 -499 c-6 -275 -13 -502 -16 -504 -3 -3 -229 -107 -502 -232 -372 -169
-501 -224 -512 -216 -10 8 -8 15 15 34 16 13 58 50 94 82 58 50 110 79 428
230 l362 173 0 236 c0 261 12 1033 16 1029 1 -2 30 -77 64 -168z m-7167 -233
c-144 -145 -353 -340 -358 -335 -3 2 2 54 9 114 13 99 17 111 43 132 161 134
306 277 379 375 l19 25 3 -106 3 -106 -98 -99z m2519 172 c57 -64 168 -167
281 -261 26 -21 30 -33 43 -132 7 -60 12 -112 9 -115 -6 -5 -61 46 -297 279
l-158 155 0 108 0 109 27 -34 c15 -18 58 -67 95 -109z m-5033 -307 c-63 -213
-125 -516 -160 -777 -24 -182 -35 -509 -21 -620 6 -44 9 -81 7 -83 -2 -2 -16
0 -32 5 -24 8 -30 18 -41 69 -18 84 -16 390 3 569 33 312 89 595 162 818 l45
138 28 -26 28 -27 -19 -66z m7616 -53 c63 -201 119 -492 150 -784 19 -179 21
-485 3 -569 -11 -51 -17 -61 -41 -69 -16 -5 -30 -7 -32 -5 -2 2 0 35 5 73 38
290 -32 875 -158 1330 l-39 140 25 28 26 27 13 -31 c7 -17 29 -80 48 -140z
m-7459 0 c3 -5 -6 -53 -20 -107 -27 -104 -104 -502 -133 -692 -14 -88 -18
-176 -18 -373 l0 -258 -35 3 c-34 3 -35 5 -43 53 -5 28 -8 131 -9 230 0 240
30 492 98 820 25 122 83 354 91 368 5 8 58 -26 69 -44z m7312 -84 c61 -239
109 -497 138 -740 17 -149 21 -463 7 -550 -8 -48 -9 -50 -43 -53 l-35 -3 0
258 c0 197 -4 285 -18 373 -30 192 -106 589 -134 694 l-26 100 34 28 c18 15
36 25 40 20 4 -4 20 -61 37 -127z m-4888 -106 c-11 -89 -30 -216 -42 -283
l-22 -121 -89 -95 c-224 -238 -391 -512 -496 -815 -23 -66 -53 -131 -66 -145
-36 -39 -102 -147 -121 -198 -10 -26 -20 -51 -24 -55 -11 -12 -93 219 -130
363 -24 95 -33 156 -37 255 -7 162 10 256 74 406 l45 106 151 121 c238 189
392 324 642 561 129 123 130 123 133 93 2 -17 -6 -104 -18 -193z m2505 71
c206 -196 384 -351 612 -532 l151 -121 45 -106 c64 -150 81 -244 74 -406 -4
-99 -13 -160 -37 -255 -37 -144 -119 -375 -130 -363 -4 4 -14 29 -24 55 -19
52 -85 159 -123 199 -15 16 -41 75 -64 145 -69 208 -210 467 -353 649 -26 33
-89 105 -140 160 l-92 100 -22 125 c-27 149 -62 409 -62 464 l0 40 33 -30 c17
-16 77 -72 132 -124z m-3105 -65 c-10 -88 -21 -140 -30 -149 -55 -50 -219
-180 -469 -370 -12 -9 -13 6 -8 104 7 113 23 205 52 306 l15 52 112 38 c62 21
163 64 223 95 61 31 112 57 115 58 3 1 -1 -60 -10 -134z m3660 77 c63 -32 166
-75 228 -96 l112 -38 15 -52 c29 -101 45 -193 52 -306 5 -98 4 -113 -8 -104
-250 190 -414 320 -469 370 -9 9 -20 61 -30 149 -9 74 -16 135 -15 135 0 0 52
-26 115 -58z m-8021 -342 c-11 -212 -17 -389 -15 -395 2 -5 227 -109 500 -230
272 -121 496 -223 496 -227 0 -8 -130 -38 -168 -38 -16 0 -54 11 -83 24 -58
26 -724 350 -798 388 l-44 23 2 319 2 318 62 103 c34 57 63 103 63 102 1 -1
-7 -175 -17 -387z m2685 352 c3 -5 -15 -87 -39 -183 -86 -343 -119 -611 -113
-922 l3 -197 -35 -10 c-23 -6 -38 -6 -45 1 -17 17 -12 416 8 556 34 245 133
753 153 784 5 9 58 -14 68 -29z m2709 9 c80 -45 192 -79 300 -90 54 -5 104 -8
112 -5 21 9 27 -13 19 -73 l-7 -56 -101 6 c-125 7 -236 35 -343 86 l-82 40 22
60 c12 34 23 61 25 61 1 0 26 -13 55 -29z m1574 -32 l22 -60 -82 -40 c-107
-51 -218 -79 -343 -86 l-101 -6 -7 56 c-8 60 -2 82 19 73 8 -3 58 0 111 5 109
11 227 46 300 89 27 16 51 29 54 29 3 1 15 -26 27 -60z m2726 -57 c32 -134
101 -513 124 -675 20 -140 25 -539 8 -556 -7 -7 -22 -7 -45 -1 l-35 10 3 197
c4 222 -7 378 -44 596 -20 120 -76 365 -110 484 -5 18 1 26 27 42 18 11 36 18
40 15 4 -2 19 -53 32 -112z m2635 12 l61 -101 2 -319 2 -319 -44 -23 c-74 -38
-740 -362 -798 -388 -29 -13 -67 -24 -83 -24 -38 0 -168 30 -168 38 0 4 224
106 496 227 273 121 498 223 500 227 5 7 -21 580 -31 718 -4 41 -4 72 -2 70 2
-3 32 -51 65 -106z m-9478 -18 c0 -3 -13 -60 -30 -128 -71 -294 -107 -559
-118 -852 l-7 -189 -36 -13 -36 -12 -7 66 c-25 269 37 768 139 1114 l16 58 40
-20 c21 -11 39 -22 39 -24z m6704 -126 c88 -363 130 -725 112 -972 l-8 -96
-36 12 -37 13 -7 189 c-11 293 -47 558 -118 852 -17 68 -30 125 -30 128 0 2
17 12 38 23 26 14 39 16 44 8 3 -7 22 -77 42 -157z m-6557 81 l39 -11 -38
-114 c-71 -217 -126 -531 -136 -784 l-7 -154 -34 -14 -34 -14 6 202 c8 265 38
476 114 801 18 80 29 107 38 103 8 -3 31 -10 52 -15z m6376 -88 c76 -325 106
-536 114 -801 l6 -202 -34 14 -34 14 -7 154 c-10 253 -65 567 -136 784 l-38
114 46 14 c25 8 48 14 52 15 3 1 18 -47 31 -106z m-6138 36 c91 -13 350 -16
439 -5 l59 8 -7 -34 c-23 -114 -37 -232 -44 -368 l-7 -154 -80 -54 c-209 -139
-637 -374 -653 -358 -11 11 16 305 42 458 48 282 122 533 155 524 9 -3 52 -10
96 -17z m5953 -61 c39 -110 77 -265 108 -446 26 -153 53 -447 42 -458 -16 -16
-444 219 -653 358 l-80 54 -7 154 c-7 150 -30 329 -49 378 l-9 24 67 -8 c147
-17 377 -6 545 25 3 0 20 -36 36 -81z m-3863 27 c111 -70 262 -114 405 -117
85 -1 94 -5 83 -34 -6 -15 -18 -16 -112 -11 -58 3 -135 13 -171 22 -67 17
-260 106 -279 128 -13 17 -3 59 13 50 6 -4 34 -21 61 -38z m1704 -11 c-19 -23
-211 -112 -279 -129 -36 -9 -113 -19 -171 -22 -94 -5 -106 -4 -112 11 -11 29
-2 33 83 34 148 3 294 47 415 123 58 37 60 37 68 17 4 -12 3 -26 -4 -34z
m-7218 -316 c-7 -145 -14 -272 -16 -284 -5 -23 -49 0 539 -280 153 -73 281
-136 285 -140 10 -10 -144 6 -258 28 -273 51 -574 175 -821 336 -87 56 -207
151 -247 194 l-23 24 78 32 c150 61 258 138 385 272 45 48 84 86 86 84 2 -2
-1 -122 -8 -266z m12871 54 c77 -59 162 -108 250 -144 l78 -32 -23 -24 c-40
-43 -160 -138 -247 -194 -247 -161 -548 -285 -821 -336 -114 -22 -268 -38
-258 -28 4 4 132 67 285 140 154 73 338 161 410 195 l131 63 -4 46 c-7 99 -23
430 -23 480 l0 53 85 -89 c47 -49 109 -108 137 -130z m-7462 143 c20 -24 116
-78 192 -108 83 -33 216 -57 314 -57 66 0 74 -2 74 -19 0 -14 -10 -20 -39 -25
-49 -7 -206 8 -286 29 -73 19 -204 81 -263 124 -37 27 -41 34 -32 51 13 24 23
25 40 5z m1880 -5 c9 -17 5 -24 -32 -51 -59 -43 -190 -105 -263 -124 -80 -21
-237 -36 -286 -29 -29 5 -39 11 -39 25 0 17 8 19 74 19 98 0 231 24 314 57 76
30 172 84 192 108 17 20 27 19 40 -5z m-1949 -147 c24 -29 141 -99 213 -127
97 -39 194 -57 308 -57 96 -1 99 -1 96 -22 -3 -21 -7 -22 -123 -21 -149 1
-228 20 -360 85 -125 61 -181 106 -171 137 9 26 19 28 37 5z m2015 -5 c10 -31
-46 -76 -171 -137 -132 -65 -211 -84 -360 -85 -116 -1 -120 0 -123 21 -3 21 0
21 96 22 114 0 211 18 308 57 72 28 189 98 213 127 18 23 28 21 37 -5z m-2308
-191 c-19 -107 -20 -109 -81 -187 -86 -108 -179 -266 -238 -401 -27 -63 -54
-116 -61 -118 -7 -2 -44 -19 -81 -37 -79 -40 -78 -48 -20 101 72 183 178 370
303 535 57 74 190 223 195 218 1 -2 -6 -52 -17 -111z m2742 -107 c94 -123 158
-227 226 -365 63 -129 129 -294 120 -302 -2 -3 -17 4 -32 14 -15 10 -50 27
-77 39 -48 20 -49 23 -91 121 -69 162 -146 292 -252 424 -50 63 -54 72 -69
160 -9 52 -18 103 -21 114 -7 26 123 -109 196 -205z m-2740 -280 c9 -17 3 -33
-33 -93 -99 -163 -194 -417 -240 -641 -13 -65 -27 -115 -30 -109 -3 5 -11 60
-18 122 -13 131 -1 286 32 386 30 91 130 290 195 388 l59 88 12 -61 c7 -33 17
-69 23 -80z m2702 -24 c53 -90 121 -235 147 -311 33 -99 46 -255 32 -386 -7
-62 -15 -117 -18 -122 -3 -6 -17 44 -30 109 -46 223 -141 478 -239 641 -42 69
-43 72 -30 105 8 18 17 55 21 81 l7 48 35 -48 c19 -26 53 -79 75 -117z m-4082
-62 c-39 -76 -92 -190 -118 -253 l-47 -114 -339 -129 c-186 -70 -340 -127
-342 -125 -10 9 -40 275 -35 301 6 28 14 32 131 72 227 76 491 199 715 332 55
33 101 59 103 57 1 -1 -29 -65 -68 -141z m5394 62 c223 -129 458 -237 676
-310 117 -40 125 -44 131 -72 5 -26 -25 -292 -35 -301 -2 -2 -156 55 -342 125
l-339 129 -47 114 c-26 63 -78 174 -115 248 -83 163 -81 159 -52 140 13 -9 69
-42 123 -73z m-5076 -321 c32 -144 86 -299 217 -625 67 -168 137 -345 156
-395 l34 -90 6 265 c5 224 9 277 27 342 27 98 56 166 97 223 l32 46 6 -104
c21 -336 148 -671 351 -923 169 -210 446 -371 575 -334 34 9 35 8 110 -68 84
-86 189 -160 266 -188 42 -15 81 -18 249 -17 l199 1 -7 -97 c-9 -128 -34 -274
-59 -340 -77 -207 -396 -209 -785 -5 -673 353 -1511 1274 -1648 1812 -66 259
-30 537 101 767 l40 70 6 -125 c4 -69 16 -165 27 -215z m4766 254 c123 -225
157 -499 92 -751 -137 -538 -975 -1459 -1648 -1812 -322 -169 -602 -199 -734
-78 -55 50 -95 204 -110 423 l-7 97 199 -1 c168 -1 207 2 249 17 77 28 182
102 266 188 75 76 76 77 110 68 129 -37 406 124 575 334 203 252 332 592 351
924 l6 103 32 -46 c41 -57 70 -125 97 -223 18 -65 22 -118 27 -342 l6 -265 34
90 c19 50 89 227 156 395 189 471 232 618 242 833 3 70 9 124 14 120 4 -4 23
-38 43 -74z m-3585 -52 c1 -5 -22 -47 -50 -95 -127 -215 -217 -488 -264 -801
-9 -58 -17 -106 -19 -108 -8 -8 -56 157 -56 192 0 63 57 325 96 448 44 136
109 285 164 379 l42 69 43 -38 c24 -21 44 -42 44 -46z m2501 -82 c33 -66 80
-182 105 -258 47 -143 105 -402 105 -472 0 -35 -48 -200 -56 -192 -2 2 -10 50
-19 108 -47 313 -137 586 -264 801 -28 48 -51 89 -51 92 0 3 19 23 43 45 l42
40 18 -22 c9 -12 44 -76 77 -142z m-6042 71 c296 -171 584 -258 859 -260 l132
-1 -6 -25 c-20 -85 -137 -319 -201 -398 l-18 -24 -100 78 c-198 154 -407 334
-641 552 -146 136 -151 150 -25 78z m9492 36 c0 -26 -506 -473 -754 -666
l-100 -78 -18 24 c-64 79 -181 313 -201 398 l-6 25 132 1 c276 2 592 99 872
267 63 38 75 43 75 29z m-4670 -12 c218 -17 295 -34 427 -96 87 -42 183 -57
274 -44 36 5 73 12 82 15 20 8 130 -157 196 -295 111 -235 190 -542 217 -842
l6 -76 -83 -87 c-46 -48 -110 -105 -142 -127 -63 -43 -185 -103 -193 -96 -2 3
7 25 20 49 81 145 137 349 139 504 3 160 -29 260 -118 381 -167 225 -436 314
-945 314 -510 0 -775 -88 -945 -314 -87 -116 -120 -220 -119 -371 1 -152 43
-315 123 -480 22 -44 38 -82 36 -84 -7 -7 -133 57 -192 97 -32 22 -96 79 -142
127 l-83 87 6 76 c26 305 115 641 231 872 64 128 164 273 183 265 8 -3 45 -10
81 -15 91 -13 187 2 275 44 126 60 214 81 406 95 58 5 110 9 115 10 6 0 71 -4
145 -9z m-1136 -85 l56 -25 -61 -92 c-167 -254 -281 -599 -323 -977 l-11 -105
-33 50 c-38 60 -39 86 -17 261 43 326 150 656 281 861 19 28 38 52 43 52 5 0
34 -11 65 -25z m2153 -49 c139 -226 256 -627 279 -950 l7 -95 -34 -52 -34 -53
-11 105 c-42 378 -156 723 -323 977 l-61 92 53 25 c28 13 59 23 67 22 8 -1 34
-33 57 -71z m-5827 -327 c188 -164 407 -351 497 -421 l66 -52 -29 -23 c-73
-60 -69 -61 -195 33 -109 83 -254 203 -369 308 -176 160 -370 350 -370 362 0
8 16 32 36 54 l36 40 87 -82 c48 -46 157 -144 241 -219z m9776 219 c7 -25 8
-24 -190 -211 -212 -199 -400 -361 -546 -471 -125 -94 -121 -93 -194 -34 l-28
24 98 79 c208 167 692 591 763 669 l25 26 33 -32 c18 -17 36 -40 39 -50z
m-9960 -339 c172 -159 377 -333 487 -414 37 -27 63 -53 59 -57 -5 -5 -25 -11
-45 -15 -34 -5 -44 0 -139 73 -155 117 -366 296 -523 441 -184 171 -173 155
-141 202 l27 38 57 -59 c31 -33 129 -127 218 -209z m10049 231 c33 -48 45 -32
-140 -203 -161 -149 -374 -329 -523 -441 -95 -72 -107 -78 -140 -73 -19 4 -39
10 -44 15 -4 4 22 30 59 57 170 124 642 545 728 647 17 20 31 37 31 37 1 1 14
-17 29 -39z m-10317 -213 c145 -137 319 -288 475 -412 75 -60 137 -113 137
-117 0 -4 -12 -8 -27 -8 -16 0 -44 -3 -64 -6 -33 -6 -43 0 -170 101 -136 110
-224 186 -406 354 l-102 93 22 44 c11 24 24 44 29 44 4 0 52 -42 106 -93z
m10419 49 l22 -44 -102 -93 c-182 -168 -270 -244 -406 -354 -127 -101 -137
-107 -170 -101 -20 3 -48 6 -63 6 -16 0 -28 4 -28 8 0 4 62 57 138 117 155
124 329 275 474 412 54 51 102 93 106 93 5 0 18 -20 29 -44z m-8160 20 c-3 -7
-22 -65 -42 -128 l-37 -114 -400 -152 c-221 -84 -403 -151 -404 -149 -2 2 -10
50 -18 108 l-15 104 59 90 c32 50 66 108 76 128 23 47 31 35 40 -61 3 -40 12
-76 18 -78 6 -2 169 56 361 130 193 74 354 134 359 135 4 1 6 -5 3 -13z m6138
-127 c187 -71 345 -127 351 -125 6 2 15 38 18 78 9 96 17 108 40 61 10 -20 44
-78 76 -128 l59 -90 -15 -104 c-8 -58 -16 -106 -18 -108 -1 -2 -183 65 -404
149 l-400 152 -37 114 c-20 63 -39 122 -43 130 -4 12 -1 14 14 8 10 -4 172
-66 359 -137z m-5935 -121 c45 -174 169 -413 335 -644 63 -88 73 -108 78 -155
6 -62 -7 -260 -24 -354 l-11 -65 -133 0 c-170 0 -752 47 -813 66 -8 2 8 30 42
74 125 161 213 372 331 790 35 122 77 265 123 410 l36 115 12 -97 c7 -53 18
-116 24 -140z m5468 7 c33 -110 72 -243 87 -295 119 -420 206 -629 331 -790
34 -44 50 -72 42 -74 -61 -19 -643 -66 -813 -66 l-133 0 -11 65 c-17 94 -30
292 -24 354 5 47 15 66 75 149 134 186 264 424 318 582 12 36 29 118 38 182 9
64 20 111 23 105 4 -7 34 -102 67 -212z m-8009 -3 c122 -114 298 -265 389
-336 68 -53 67 -59 -3 -70 -39 -7 -43 -5 -130 70 -168 143 -395 355 -395 369
0 16 21 65 28 65 2 0 52 -44 111 -98z m10569 73 c7 -14 12 -32 12 -40 0 -14
-227 -226 -395 -369 -87 -75 -91 -77 -130 -70 -70 11 -71 17 -3 70 86 67 316
266 413 358 44 41 83 75 86 76 3 0 11 -11 17 -25z m-5603 -110 c17 -16 25 -35
25 -60 0 -25 -8 -44 -25 -60 -16 -17 -35 -25 -60 -25 -25 0 -44 8 -60 25 -17
16 -25 35 -25 60 0 25 8 44 25 60 16 17 35 25 60 25 25 0 44 -8 60 -25z m316
-4 c31 -31 36 -59 17 -94 -17 -33 -39 -46 -78 -46 -52 0 -90 38 -90 89 0 33
53 80 90 80 22 0 41 -9 61 -29z m314 4 c54 -53 16 -145 -60 -145 -49 0 -85 36
-85 85 0 49 36 85 85 85 25 0 44 -8 60 -25z m-944 -44 c31 -31 36 -59 17 -94
-17 -33 -39 -46 -78 -46 -52 0 -90 38 -90 89 0 33 53 80 90 80 22 0 41 -9 61
-29z m1260 0 c31 -31 36 -59 17 -94 -17 -33 -39 -46 -78 -46 -52 0 -90 38 -90
89 0 33 53 80 90 80 22 0 41 -9 61 -29z m-5962 -89 c64 -59 154 -141 201 -182
47 -40 86 -77 88 -80 3 -9 -82 -34 -97 -29 -9 4 -187 154 -290 247 l-54 48 13
52 c8 29 16 52 18 52 2 0 57 -49 121 -108z m10681 56 l13 -52 -54 -48 c-103
-93 -281 -243 -290 -247 -15 -5 -100 20 -97 29 2 3 57 54 123 112 66 58 156
139 200 181 44 42 83 76 86 77 3 0 11 -23 19 -52z m-8453 -167 l-32 -114 -350
-129 c-596 -218 -627 -229 -631 -225 -4 4 -54 361 -51 362 13 5 94 71 139 113
65 62 61 66 79 -80 7 -54 16 -103 20 -109 5 -9 120 31 406 139 484 184 447
171 451 163 1 -3 -13 -57 -31 -120z m6546 -58 c258 -98 361 -133 366 -124 4 6
13 55 20 109 18 146 14 142 79 80 45 -42 126 -108 139 -113 3 -1 -47 -358 -51
-362 -4 -4 -35 7 -631 225 l-349 128 -28 95 c-15 52 -30 106 -33 122 l-7 27
69 -25 c37 -14 229 -87 426 -162z m-8769 -70 l106 -93 -41 -20 -40 -21 -85 73
c-47 40 -94 79 -105 87 -19 14 -26 70 -13 105 7 18 4 20 178 -131z m10716 81
c0 -30 -6 -45 -19 -55 -11 -8 -58 -47 -105 -87 l-85 -73 -40 21 -41 20 72 62
c39 34 101 88 137 120 71 63 81 62 81 -8z m-10840 -191 c38 -32 68 -61 67 -64
-1 -3 -35 -36 -74 -73 l-73 -68 0 131 c0 72 3 131 6 131 3 0 37 -26 74 -57z
m1194 -165 c16 -123 32 -227 36 -231 7 -7 290 93 899 317 68 25 127 44 129 41
8 -7 -58 -178 -98 -252 l-35 -67 -370 -117 c-203 -64 -441 -139 -527 -167 -87
-27 -158 -46 -158 -42 0 4 -20 156 -45 336 -25 181 -45 337 -45 347 0 11 8 17
23 18 12 0 47 8 77 19 91 30 82 46 114 -202z m8533 195 c50 -12 73 -23 73 -33
0 -8 -20 -163 -45 -344 -25 -180 -45 -332 -45 -336 0 -4 -71 15 -157 42 -87
28 -324 103 -528 167 l-370 117 -35 67 c-40 74 -106 245 -98 252 2 3 61 -16
129 -41 609 -224 892 -324 899 -317 4 4 20 108 36 231 27 212 30 223 49 219
11 -3 53 -13 92 -24z m1133 -104 l0 -131 -72 68 c-40 37 -74 70 -75 73 -2 7
129 120 140 121 4 0 7 -59 7 -131z m-10007 49 c3 -13 29 -201 58 -418 29 -217
55 -398 59 -402 3 -4 127 31 275 78 657 208 739 234 742 230 7 -7 -74 -71
-136 -108 -34 -20 -101 -48 -149 -62 -415 -127 -570 -198 -733 -338 -63 -53
-126 -131 -159 -196 l-23 -44 -38 69 c-61 107 -128 275 -162 402 -30 111 -31
124 -31 321 -1 184 2 214 22 290 13 47 32 104 42 126 l18 42 93 15 c52 8 99
15 105 16 7 1 14 -9 17 -21z m9211 1 l79 -12 18 -41 c9 -23 28 -79 41 -126 20
-75 23 -108 23 -285 0 -186 -2 -208 -28 -309 -33 -133 -82 -258 -150 -388
l-51 -97 -40 67 c-47 79 -147 182 -235 242 -143 97 -298 161 -643 266 -48 14
-115 42 -149 62 -62 37 -143 101 -136 108 3 4 85 -22 742 -230 148 -47 272
-82 275 -78 4 4 30 185 59 402 29 217 55 405 58 418 4 19 10 22 32 18 14 -3
61 -11 105 -17z m-6494 -720 c288 -289 606 -530 895 -678 194 -100 362 -151
525 -158 102 -4 144 2 267 42 20 7 21 5 12 -33 -4 -21 -20 -108 -35 -193 -14
-85 -27 -155 -29 -157 -2 -2 -157 63 -290 123 -99 44 -432 213 -550 278 -472
260 -854 560 -1034 813 l-63 89 6 59 c3 32 6 73 6 90 0 29 4 26 92 -69 51 -55
140 -148 198 -206z m3935 211 l6 -85 -63 -89 c-177 -250 -536 -534 -1004 -797
-129 -72 -466 -243 -579 -294 -133 -60 -288 -125 -290 -123 -2 2 -15 72 -29
157 -15 85 -31 172 -35 193 -9 38 -8 40 12 33 123 -40 165 -46 267 -42 295 13
650 185 1060 512 180 144 412 365 583 558 33 37 61 66 62 65 2 -2 6 -41 10
-88z m-4210 -326 c131 -171 428 -415 750 -616 264 -164 645 -362 980 -507
l160 -69 -3 -33 c-1 -19 -5 -48 -8 -66 l-5 -32 -47 18 c-189 76 -610 279 -837
404 -346 190 -649 405 -848 601 -99 98 -227 254 -227 278 0 19 23 88 29 87 3
0 29 -30 56 -65z m4263 27 c7 -21 12 -43 12 -49 0 -22 -124 -176 -216 -267
-200 -198 -480 -400 -830 -596 -233 -130 -663 -339 -866 -420 l-47 -18 -5 32
c-3 18 -7 47 -8 66 l-3 33 160 69 c335 145 716 343 980 507 322 201 619 445
750 616 28 35 53 65 56 65 3 1 11 -16 17 -38z m-5534 -66 c213 -27 678 -71
859 -81 64 -4 117 -10 117 -14 0 -4 -10 -31 -22 -60 l-22 -53 -210 6 c-222 6
-390 22 -674 62 -262 38 -534 97 -518 112 17 17 205 62 240 57 21 -2 125 -16
230 -29z m7086 9 c131 -36 135 -39 69 -58 -240 -70 -788 -143 -1145 -153
l-210 -6 -22 53 c-12 29 -22 56 -22 60 0 4 55 10 123 14 256 15 1030 94 1072
111 21 8 43 4 135 -21z m-7530 -129 c244 -74 779 -149 1163 -162 97 -3 177 -8
177 -10 0 -2 -7 -17 -15 -33 l-16 -30 -158 0 c-179 0 -457 20 -696 50 -211 27
-524 78 -552 90 -20 8 -23 17 -23 71 0 54 2 61 18 56 9 -4 55 -18 102 -32z
m7740 -25 c0 -53 -3 -62 -22 -70 -29 -12 -342 -63 -553 -90 -239 -30 -517 -50
-696 -50 l-158 0 -16 30 c-8 16 -15 31 -15 35 0 3 47 5 104 5 346 0 1040 96
1266 175 93 32 90 33 90 -35z m-5948 -225 c349 -329 930 -680 1593 -961 l186
-79 -6 -80 c-4 -44 -9 -82 -11 -84 -17 -19 -624 264 -929 432 -485 267 -873
575 -1048 831 -38 57 -39 60 -27 95 32 91 24 90 90 8 33 -41 102 -114 152
-162z m4273 169 l18 -51 -40 -59 c-212 -310 -681 -654 -1349 -987 -284 -142
-616 -288 -628 -276 -2 2 -7 40 -11 84 l-6 80 186 79 c337 143 723 342 1000
514 321 200 617 443 750 615 28 36 53 62 56 58 3 -3 14 -29 24 -57z m-5685
-174 c273 -36 440 -50 663 -57 119 -3 217 -9 217 -12 0 -3 -10 -26 -22 -50
l-23 -43 -195 6 c-303 9 -672 49 -987 107 -120 23 -116 20 -128 89 l-6 36 163
-28 c90 -15 233 -36 318 -48z m7336 43 c-13 -72 -9 -69 -129 -92 -315 -58
-684 -98 -987 -107 l-195 -6 -23 43 c-12 24 -22 47 -22 50 0 3 98 9 218 12
223 7 390 21 662 57 124 17 463 72 479 79 2 0 0 -16 -3 -36z m-6168 -141 c312
-390 1051 -856 1910 -1203 82 -33 84 -34 79 -64 -3 -16 -13 -132 -23 -257 -13
-159 -22 -228 -30 -228 -47 0 -724 329 -989 481 -201 115 -497 311 -640 425
-222 177 -441 418 -516 566 l-30 59 55 97 c30 53 67 123 82 155 16 31 29 57
30 57 1 0 33 -40 72 -88z m4735 -174 l28 -47 -30 -58 c-75 -149 -294 -390
-516 -567 -143 -114 -439 -310 -640 -425 -265 -152 -942 -481 -989 -481 -8 0
-17 67 -30 223 -9 122 -20 238 -22 257 l-6 35 84 34 c860 347 1598 813 1911
1204 l70 88 57 -108 c30 -59 68 -129 83 -155z m-6098 117 c292 -46 703 -85
896 -85 43 0 79 -3 79 -8 0 -4 -11 -24 -25 -45 -30 -43 -22 -42 -230 -27 -189
14 -360 34 -672 77 l-262 36 -15 45 -16 45 43 -6 c23 -4 114 -18 202 -32z
m7479 -9 l-15 -43 -262 -36 c-312 -43 -483 -63 -672 -77 -208 -15 -200 -16
-230 27 -14 21 -25 40 -25 44 0 3 76 9 169 13 271 10 736 62 951 105 25 5 57
9 72 10 l27 1 -15 -44z m-7389 -166 c279 -37 465 -58 633 -69 74 -5 136 -12
138 -14 3 -2 -5 -21 -17 -42 l-23 -38 -135 7 c-160 7 -447 36 -671 67 l-159
22 -17 41 c-9 22 -18 47 -21 53 -4 9 3 11 23 8 16 -3 128 -18 249 -35z m7342
28 c-3 -7 -12 -32 -21 -54 l-17 -41 -159 -22 c-224 -31 -511 -60 -671 -67
l-135 -7 -23 38 c-12 21 -20 40 -17 42 2 2 64 9 138 14 169 11 437 42 693 78
110 16 204 29 209 30 4 1 6 -5 3 -11z m-7302 -212 c110 -14 295 -33 410 -42
116 -9 212 -18 214 -20 2 -2 -7 -20 -20 -39 l-24 -36 -100 6 c-131 8 -409 33
-510 45 -159 20 -154 18 -175 61 -23 44 -25 60 -7 54 6 -2 102 -16 212 -29z
m7196 -24 c-22 -44 -16 -42 -176 -62 -101 -12 -379 -37 -510 -45 l-100 -6 -24
36 c-13 19 -22 37 -20 39 2 2 99 11 214 20 180 15 590 60 620 70 18 5 17 -12
-4 -52z m-5995 -267 c368 -372 1015 -772 1781 -1101 98 -42 182 -80 186 -84 5
-4 5 -42 0 -83 l-8 -75 -130 52 c-327 132 -685 302 -935 444 -298 169 -606
394 -819 598 -122 117 -272 293 -283 331 -4 14 -10 62 -14 106 l-7 82 70 -90
c38 -49 110 -131 159 -180z m4805 143 c-10 -76 -13 -82 -72 -156 -93 -115
-307 -324 -452 -440 -142 -113 -412 -295 -587 -394 -250 -142 -608 -312 -935
-444 l-130 -52 -8 75 c-5 41 -5 79 0 83 4 4 88 42 186 84 898 386 1629 869
1942 1284 68 90 73 87 56 -40z m-5976 -22 c66 -8 190 -19 275 -26 85 -6 169
-13 187 -16 l32 -5 -35 -72 c-66 -139 -78 -299 -40 -501 9 -44 13 -82 10 -85
-8 -8 -215 208 -315 328 -81 96 -170 219 -240 329 -47 73 -57 69 126 48z
m7056 -48 c-70 -110 -159 -233 -240 -329 -100 -120 -307 -336 -315 -328 -3 3
1 41 10 85 38 202 26 362 -40 501 l-35 72 32 5 c18 3 102 10 187 17 85 6 202
17 260 24 58 7 122 13 143 14 l37 1 -39 -62z m-5635 -636 c398 -312 889 -581
1529 -839 99 -39 181 -76 182 -80 2 -4 0 -47 -5 -95 l-7 -87 -180 73 c-807
328 -1398 686 -1792 1088 -68 69 -73 78 -96 158 -50 173 -57 172 105 15 79
-77 198 -182 264 -233z m4489 336 c-4 -18 -18 -71 -32 -118 -23 -80 -28 -89
-96 -158 -394 -402 -985 -760 -1792 -1088 l-180 -73 -7 87 c-5 48 -7 91 -5 95
1 4 83 41 182 80 267 108 447 189 670 302 473 241 831 486 1119 767 78 75 142
137 144 138 2 0 0 -15 -3 -32z m-4620 -574 c371 -317 945 -638 1635 -915 107
-43 196 -84 197 -91 1 -7 7 -128 13 -268 6 -140 17 -318 25 -394 8 -77 14
-141 12 -142 -1 -1 -56 50 -122 114 -172 167 -312 288 -720 627 -835 692 -948
804 -1100 1080 -42 76 -42 76 60 -11z m4409 9 c-152 -275 -265 -386 -1094
-1074 -417 -346 -555 -466 -725 -630 -69 -67 -125 -120 -125 -118 0 2 7 67 15
144 8 77 19 255 25 395 6 140 12 261 13 268 1 7 90 48 197 91 700 281 1249
589 1644 924 44 37 82 67 84 67 2 0 -13 -30 -34 -67z"/>
<path d="M8610 14653 c-94 -36 -72 -169 27 -166 72 2 108 84 61 137 -24 26
-62 39 -88 29z"/>
<path d="M8890 14653 c-94 -36 -72 -169 27 -166 72 2 108 84 61 137 -24 26
-62 39 -88 29z"/>
<path d="M9170 14653 c-94 -36 -72 -169 27 -166 72 2 108 84 61 137 -24 26
-62 39 -88 29z"/>
<path d="M9450 14653 c-94 -36 -72 -169 27 -166 72 2 108 84 61 137 -24 26
-62 39 -88 29z"/>
<path d="M8330 14613 c-94 -36 -72 -169 27 -166 72 2 108 84 61 137 -24 26
-62 39 -88 29z"/>
<path d="M10494 14650 c-84 -34 -62 -160 29 -163 105 -3 120 145 17 167 -14 3
-35 1 -46 -4z"/>
<path d="M10774 14650 c-84 -34 -62 -160 29 -163 105 -3 120 145 17 167 -14 3
-35 1 -46 -4z"/>
<path d="M11054 14650 c-84 -34 -62 -160 29 -163 105 -3 120 145 17 167 -14 3
-35 1 -46 -4z"/>
<path d="M11334 14650 c-84 -34 -62 -160 29 -163 105 -3 120 145 17 167 -14 3
-35 1 -46 -4z"/>
<path d="M11614 14610 c-84 -34 -62 -160 29 -163 105 -3 120 145 17 167 -14 3
-35 1 -46 -4z"/>
<path d="M7374 11550 c-57 -23 -72 -104 -28 -145 58 -54 144 -16 144 63 0 61
-62 105 -116 82z"/>
<path d="M7479 11341 c-57 -58 -21 -146 60 -146 56 0 86 30 86 86 0 81 -88
117 -146 60z"/>
<path d="M7685 11175 c-56 -55 -16 -145 63 -145 52 0 82 32 82 87 0 33 -6 46
-26 62 -37 29 -89 27 -119 -4z"/>
<path d="M12570 11553 c-62 -23 -81 -103 -35 -148 52 -53 145 -15 145 59 0 58
-62 108 -110 89z"/>
<path d="M12403 11346 c-36 -31 -39 -95 -5 -128 33 -34 97 -31 128 5 33 39 31
81 -5 118 -37 36 -79 38 -118 5z"/>
<path d="M12196 11179 c-35 -28 -37 -95 -3 -127 55 -51 147 -12 147 63 0 74
-84 111 -144 64z"/>
<path d="M8207 11772 c13 -96 -82 -161 -169 -116 l-31 16 6 -47 c14 -95 80
-155 172 -155 151 0 225 165 127 282 -23 28 -76 58 -101 58 -5 0 -7 -17 -4
-38z"/>
<path d="M11745 11796 c-17 -7 -43 -27 -57 -44 -98 -117 -24 -282 127 -282 92
0 158 60 172 155 l6 47 -31 -16 c-87 -45 -182 20 -169 116 6 42 0 45 -48 24z"/>
<path d="M5865 10334 c-54 -58 -16 -144 63 -144 51 0 86 35 86 87 0 75 -98
112 -149 57z"/>
<path d="M5766 10005 c-55 -51 -18 -149 57 -149 52 0 87 35 87 86 0 79 -86
117 -144 63z"/>
<path d="M5692 9690 c-33 -14 -54 -70 -41 -109 12 -33 53 -61 89 -61 33 0 80
53 80 90 0 22 -9 41 -29 61 -30 30 -58 35 -99 19z"/>
<path d="M5660 9363 c-35 -13 -60 -47 -60 -82 1 -40 14 -62 47 -79 57 -31 123
7 123 72 0 48 -8 65 -41 81 -29 16 -44 17 -69 8z"/>
<path d="M5645 9030 c-62 -24 -79 -106 -30 -147 36 -31 88 -31 120 2 63 62 -8
178 -90 145z"/>
<path d="M14014 10336 c-60 -51 -21 -146 58 -146 79 0 117 86 63 144 -32 34
-83 35 -121 2z"/>
<path d="M14115 10005 c-35 -34 -34 -93 0 -125 57 -53 145 -13 145 66 0 74
-93 112 -145 59z"/>
<path d="M14209 9671 c-20 -20 -29 -39 -29 -61 0 -37 47 -90 80 -90 67 0 111
65 85 126 -24 59 -90 71 -136 25z"/>
<path d="M14275 9359 c-33 -19 -45 -41 -45 -81 0 -87 103 -119 157 -49 21 27
16 85 -10 109 -28 27 -75 36 -102 21z"/>
<path d="M14303 9033 c-32 -6 -63 -50 -63 -90 0 -73 88 -110 145 -60 68 58 7
167 -82 150z"/>
<path d="M7758 5855 c-55 -30 -56 -124 -3 -159 72 -47 155 7 146 94 -7 66 -79
99 -143 65z"/>
<path d="M8093 5605 c-37 -16 -53 -42 -53 -85 0 -44 16 -69 55 -86 64 -26 135
19 135 86 0 68 -73 113 -137 85z"/>
<path d="M8409 5355 c-80 -43 -47 -175 43 -175 60 0 97 35 98 93 0 75 -75 118
-141 82z"/>
<path d="M8721 5144 c-25 -20 -31 -34 -31 -64 0 -52 8 -68 41 -85 87 -45 175
32 134 118 -28 60 -93 74 -144 31z"/>
<path d="M9049 4987 c-39 -30 -51 -96 -24 -133 38 -55 130 -51 160 6 22 42 18
74 -11 109 -21 26 -33 31 -67 31 -23 0 -49 -6 -58 -13z"/>
<path d="M9367 4830 c-71 -56 -25 -170 68 -170 42 0 85 50 85 97 0 78 -91 121
-153 73z"/>
<path d="M12144 5858 c-53 -25 -62 -112 -18 -153 50 -46 131 -26 153 38 29 82
-55 154 -135 115z"/>
<path d="M11843 5612 c-73 -22 -96 -110 -42 -161 28 -26 68 -32 106 -16 37 16
53 41 53 85 0 44 -16 69 -55 86 -19 8 -36 14 -37 13 -2 -1 -13 -4 -25 -7z"/>
<path d="M11479 5341 c-47 -47 -38 -119 18 -149 55 -30 125 1 138 59 21 93
-89 156 -156 90z"/>
<path d="M11168 5155 c-35 -19 -52 -71 -37 -112 20 -58 80 -79 138 -48 33 17
41 33 41 85 0 70 -76 110 -142 75z"/>
<path d="M10826 4969 c-45 -53 -25 -128 39 -149 84 -28 155 55 113 133 -18 34
-40 46 -85 47 -34 0 -46 -5 -67 -31z"/>
<path d="M10506 4824 c-38 -38 -36 -95 3 -135 67 -66 177 -3 156 90 -15 69
-108 95 -159 45z"/>
<path d="M9997 810 c-51 -9 -120 -45 -150 -78 -46 -50 -62 -163 -27 -182 32
-17 169 -23 250 -11 73 12 210 65 210 83 0 5 -11 30 -24 56 -31 60 -93 117
-143 131 -42 12 -48 12 -116 1z m-2 -95 c31 -30 32 -56 2 -91 -31 -36 -73 -36
-105 1 -59 69 39 155 103 90z"/>
<path d="M7100 726 c0 -36 -3 -66 -7 -66 -5 0 -17 7 -27 15 -27 21 -99 19
-125 -2 -32 -27 -49 -84 -41 -145 5 -40 14 -57 39 -80 36 -33 92 -38 129 -12
22 15 24 15 36 -1 7 -9 21 -15 32 -13 18 3 19 13 19 183 l0 180 -27 3 -28 3 0
-65z m-44 -94 c37 -24 44 -96 13 -136 -41 -52 -101 -19 -103 56 -1 67 46 109
90 80z"/>
<path d="M8896 774 c-3 -9 -6 -38 -6 -65 0 -50 0 -50 -22 -35 -29 21 -97 20
-127 0 -28 -20 -51 -72 -51 -113 0 -44 28 -107 55 -125 31 -20 94 -20 123 0
20 14 23 14 28 0 8 -21 50 -21 58 0 3 9 6 85 6 169 0 84 -3 160 -6 169 -3 9
-16 16 -29 16 -13 0 -26 -7 -29 -16z m-27 -160 c29 -37 27 -89 -4 -119 -29
-30 -45 -31 -75 -7 -32 26 -38 90 -10 125 27 35 62 35 89 1z"/>
<path d="M9108 620 c-2 -94 1 -178 5 -186 11 -19 46 -18 54 1 5 14 8 14 29 0
31 -20 93 -19 123 1 68 48 67 191 -1 238 -29 20 -97 21 -125 1 -22 -15 -22
-15 -25 47 -3 60 -4 63 -30 66 l-27 3 -3 -171z m172 5 c7 -8 15 -34 17 -58 4
-33 0 -48 -17 -69 -25 -33 -49 -35 -81 -9 -31 25 -34 98 -5 130 22 24 68 28
86 6z"/>
<path d="M10466 768 c-9 -12 -16 -34 -16 -49 0 -20 -6 -28 -26 -33 -31 -8 -29
-40 4 -44 21 -3 22 -8 22 -100 0 -53 4 -103 9 -110 4 -8 19 -12 32 -10 23 3
24 6 27 111 l3 107 25 0 c21 0 25 4 22 23 -2 14 -11 23 -26 25 -17 3 -22 9
-20 25 2 17 12 23 38 27 27 4 35 10 35 25 0 17 -8 20 -57 23 -49 3 -58 0 -72
-20z"/>
<path d="M11756 775 c-9 -25 -7 -328 3 -343 4 -8 19 -12 32 -10 21 3 24 9 27
48 2 32 9 49 22 58 17 10 23 5 56 -48 27 -45 43 -60 59 -60 39 0 38 29 -5 97
-22 35 -40 68 -40 72 0 4 11 18 25 31 14 13 25 34 25 47 0 39 -40 29 -90 -22
l-45 -46 -5 93 c-5 91 -5 93 -31 96 -17 2 -29 -3 -33 -13z"/>
<path d="M12242 689 c-101 -21 -134 -159 -57 -236 29 -29 39 -33 87 -33 62 0
114 27 124 64 13 53 -23 62 -66 16 -53 -56 -115 -27 -115 55 0 78 60 111 111
60 42 -42 82 -28 63 22 -14 39 -88 65 -147 52z"/>
<path d="M7248 673 c-29 -18 -58 -77 -58 -119 0 -38 25 -88 55 -112 51 -40
168 -23 195 28 22 42 -18 55 -57 18 -42 -39 -101 -25 -118 30 -6 22 -5 22 77
22 103 0 113 6 105 56 -10 60 -54 94 -120 94 -31 0 -63 -7 -79 -17z"/>
<path d="M7496 665 c-52 -48 -22 -102 71 -130 63 -19 80 -36 58 -59 -24 -24
-50 -20 -90 15 -48 42 -79 28 -59 -26 23 -59 195 -59 218 0 3 9 6 30 6 45 0
35 -26 55 -98 76 -55 16 -76 39 -51 55 24 15 45 10 74 -17 15 -14 34 -23 42
-20 8 3 17 6 19 6 2 0 4 9 4 19 0 60 -140 86 -194 36z"/>
<path d="M7743 676 c-4 -8 -6 -68 -3 -133 5 -118 5 -118 30 -118 25 0 25 0 30
118 5 125 1 147 -30 147 -10 0 -23 -6 -27 -14z"/>
<path d="M7887 679 c-45 -26 -63 -139 -32 -199 30 -58 111 -75 157 -33 17 15
18 15 18 -11 0 -48 -17 -66 -60 -66 -28 0 -46 6 -57 20 -20 23 -58 26 -67 5
-3 -8 5 -27 18 -42 20 -23 33 -27 88 -31 76 -5 119 12 137 55 7 19 11 78 9
168 -3 129 -4 140 -22 143 -11 3 -25 -4 -32 -13 -12 -16 -14 -16 -36 -1 -25
18 -94 21 -121 5z m127 -61 c34 -48 14 -130 -34 -139 -65 -13 -101 87 -52 144
21 24 67 22 86 -5z"/>
<path d="M8146 674 c-9 -24 -7 -227 3 -242 4 -8 19 -12 32 -10 22 3 24 8 27
73 1 39 4 80 7 92 6 28 32 53 53 53 40 -1 47 -17 52 -117 4 -85 7 -98 24 -101
32 -7 38 13 37 120 -2 90 -5 105 -23 125 -26 28 -92 31 -126 7 -20 -14 -23
-14 -28 0 -8 21 -50 21 -58 0z"/>
<path d="M8483 680 c-35 -14 -63 -68 -63 -123 0 -91 46 -137 137 -137 64 0
112 31 113 73 0 24 -23 21 -66 -8 -20 -14 -42 -25 -49 -25 -21 0 -65 41 -65
60 0 17 9 20 88 22 l87 3 3 34 c4 43 -14 78 -50 97 -30 16 -101 18 -135 4z"/>
<path d="M9376 673 c-4 -9 14 -67 40 -134 46 -114 47 -119 30 -143 -11 -18
-25 -26 -45 -26 -31 0 -46 -21 -28 -39 18 -18 95 -13 116 8 23 23 122 275 125
316 1 26 -3 30 -24 30 -20 0 -27 -8 -42 -50 -10 -27 -26 -70 -35 -95 l-16 -44
-19 54 c-42 128 -49 140 -73 140 -12 0 -26 -7 -29 -17z"/>
<path d="M10597 683 c-4 -3 -7 -62 -7 -130 0 -105 2 -125 16 -130 36 -13 49
10 54 98 3 46 9 90 14 97 4 7 22 13 40 12 51 -3 56 -1 56 24 0 38 -67 51 -102
19 -17 -15 -18 -15 -18 0 0 17 -39 24 -53 10z"/>
<path d="M10804 656 c-31 -31 -34 -40 -34 -90 0 -101 43 -146 139 -146 39 0
56 6 80 26 52 44 29 85 -26 46 -46 -32 -67 -34 -96 -11 -15 11 -27 29 -27 39
0 17 9 20 88 22 l87 3 3 29 c9 72 -41 116 -129 116 -45 0 -55 -4 -85 -34z"/>
<path d="M11102 674 c-33 -23 -52 -67 -52 -119 0 -89 47 -135 137 -135 64 0
112 31 113 73 0 24 -23 21 -66 -8 -20 -14 -42 -25 -49 -25 -21 0 -65 41 -65
60 0 17 9 20 88 22 l87 3 3 34 c4 43 -14 78 -50 97 -36 19 -118 18 -146 -2z"/>
<path d="M11335 668 c-3 -13 -4 -95 -3 -183 l3 -160 24 -3 c32 -5 41 12 41 76
0 53 0 53 22 38 28 -20 80 -20 117 -1 30 15 61 76 61 120 0 39 -29 102 -55
119 -31 20 -94 20 -123 0 -20 -14 -23 -14 -28 0 -10 25 -53 20 -59 -6z m171
-49 c29 -32 26 -105 -5 -130 -13 -10 -31 -19 -41 -19 -27 0 -60 47 -60 85 0
40 34 85 64 85 13 0 31 -9 42 -21z"/>
<path d="M11635 678 c-3 -8 -4 -68 -3 -134 l3 -119 27 -3 c36 -4 40 13 36 153
l-3 110 -28 3 c-16 2 -29 -2 -32 -10z"/>
<path d="M12476 669 c-74 -59 -74 -169 0 -228 34 -27 113 -28 155 -4 78 46 77
198 -2 238 -43 22 -121 19 -153 -6z m125 -50 c18 -18 21 -30 16 -72 -5 -54
-24 -77 -63 -77 -29 0 -64 45 -64 82 0 77 63 115 111 67z"/>
<path d="M12724 677 c-2 -7 -3 -67 -2 -133 3 -117 3 -119 27 -122 33 -5 41 12
41 98 0 82 16 120 50 120 29 0 35 -17 40 -120 5 -91 6 -95 29 -98 33 -5 41 12
41 98 0 82 16 120 50 120 29 0 34 -17 40 -120 5 -94 5 -95 32 -98 36 -4 42 20
36 140 -4 80 -7 93 -27 109 -29 23 -88 25 -119 3 -21 -15 -25 -15 -41 0 -22
20 -85 21 -115 1 -21 -14 -24 -14 -29 0 -8 18 -46 20 -53 2z"/>
<path d="M10254 580 c-6 -6 -44 -23 -85 -37 -66 -24 -89 -27 -212 -27 -90 -1
-137 -5 -137 -12 0 -6 16 -29 35 -52 42 -48 81 -62 175 -62 105 1 191 42 229
111 31 54 27 111 -5 79z"/>
</g>
</svg>
